<?xml version="1.0" encoding="UTF-8" standalone="no"?>
<svg
   fill="none"
   viewBox="0 0 24 24"
   stroke-width="1.5"
   stroke="currentColor"
   class="size-6"
   version="1.1"
   id="svg1"
   sodipodi:docname="presentation-path.svg"
   inkscape:export-filename="presentation.png"
   inkscape:export-xdpi="4096"
   inkscape:export-ydpi="4096"
   inkscape:version="1.4.3 (0d15f75042, 2025-12-25)"
   xmlns:inkscape="http://www.inkscape.org/namespaces/inkscape"
   xmlns:sodipodi="http://sodipodi.sourceforge.net/DTD/sodipodi-0.dtd"
   xmlns="http://www.w3.org/2000/svg"
   xmlns:svg="http://www.w3.org/2000/svg">
  <defs
     id="defs1" />
  <sodipodi:namedview
     id="namedview1"
     pagecolor="#ffffff"
     bordercolor="#000000"
     borderopacity="0.25"
     inkscape:showpageshadow="2"
     inkscape:pageopacity="0.0"
     inkscape:pagecheckerboard="0"
     inkscape:deskcolor="#d1d1d1"
     inkscape:zoom="23.570226"
     inkscape:cx="6.7882251"
     inkscape:cy="12.727922"
     inkscape:window-width="1920"
     inkscape:window-height="1011"
     inkscape:window-x="0"
     inkscape:window-y="0"
     inkscape:window-maximized="1"
     inkscape:current-layer="svg1" />
  <path
     stroke-linecap="round"
     stroke-linejoin="round"
     d="m 2.9642869,2.14293 v 12.321428 c -2e-7,1.360988 1.103298,2.464286 2.4642854,2.464286 H 7.8928578 M 2.9642869,2.14293 H 1.32143 m 1.6428569,0 H 21.035713 m 0,0 h 1.642857 m -1.642857,0 v 12.321428 c 0,1.360987 -1.103298,2.464286 -2.464285,2.464286 h -2.464285 m -8.2142852,0 h 8.2142852 m -8.2142852,0 -1.095238,3.285714 m 9.3095232,-3.285714 1.095238,3.285714 m 0,0 L 17.75,21.857215 M 17.202381,20.214358 H 6.7976198 m 0,0 -0.547619,1.642857"
     id="path1"
     style="display:inline;stroke-width:1.64286"
     sodipodi:nodetypes="cssccccccccssccccccccccccc" />
  <path
     d="M 5.8088261,10.308593 Q 5.7314894,10.269925 5.623218,10.15392 5.5226802,10.037914 5.4298762,9.8909747 5.3370721,9.744035 5.2597354,9.5816279 5.1901323,9.4114871 5.1669313,9.272281 5.151464,9.1253412 5.1901323,9.0325371 5.2365344,8.9319994 5.3757405,8.9087984 q 0.00773,0.1082714 0.023201,0.2784122 0.015467,0.1701408 0.069603,0.3325479 Q 5.5226802,9.6821656 5.623218,9.813638 5.7237557,9.9373768 5.9016302,9.9528441 6.4043188,9.9915125 6.7678014,9.790437 7.1390177,9.5816279 7.4096962,9.2258789 7.6803747,8.87013 7.8659828,8.4138434 8.051591,7.9498231 8.1907971,7.4703354 8.3377368,6.9908478 8.4537419,6.5422948 8.569747,6.0937418 8.6934857,5.7611939 8.7708224,5.4750481 8.6857521,5.382244 8.6006817,5.2817063 8.4150735,5.2971736 8.2294654,5.312641 7.9742542,5.405445 7.7267767,5.4905154 7.4792992,5.5833195 7.2318217,5.6683899 7.0152789,5.7147919 6.7987361,5.7534603 6.682731,5.6761235 6.5203239,5.5678521 6.5744596,5.4673144 6.6285953,5.359043 6.8296708,5.2662389 7.0307463,5.1657012 7.3478268,5.0806308 7.672641,4.9955604 8.0361236,4.9182237 8.4073399,4.840887 8.7862898,4.7790176 9.1729734,4.7094145 9.5055213,4.6630125 q 0.3325479,-0.046402 0.5800257,-0.077337 0.255211,-0.030935 0.355749,-0.046402 0.131472,-0.015467 0.363482,-0.038668 0.23201,-0.030935 0.471754,-0.061869 0.239744,-0.030935 0.425352,-0.046402 0.185608,-0.023201 0.224277,-0.023201 0.146939,-0.00773 0.363482,-0.015467 0.224277,-0.00773 0.433086,-0.00773 0.208809,0 0.363482,0.00773 0.154674,0.00773 0.154674,0.015467 l 0.08507,0.2552111 q -0.208809,0.015467 -0.564558,0.030935 -0.355749,0.00773 -0.781101,0.030935 -0.425352,0.023201 -0.881638,0.069603 -0.456287,0.038668 -0.850704,0.1160051 Q 9.8535365,4.9414247 9.5519233,5.0574298 9.2503101,5.1657012 9.1265714,5.3281083 9.064702,5.5059827 8.9796316,5.853998 8.8945612,6.2020132 8.7708224,6.6505662 8.6470837,7.0913855 8.4846766,7.5940742 8.3300031,8.0890292 8.1289277,8.5607832 7.9355859,9.0325371 7.695842,9.4424218 7.4560982,9.8445727 7.1622187,10.107518 6.8760728,10.362729 6.5357913,10.432332 6.2032434,10.509668 5.8088261,10.308593 Z"
     id="text7"
     style="font-size:7.91928px;line-height:1;font-family:'Nothing You Could Do';-inkscape-font-specification:'Nothing You Could Do';letter-spacing:0.0544451px;word-spacing:0px;fill:#000000;stroke:#000000;stroke-width:0.405863"
     aria-label="J" />
  <path
     d="m 8.6465879,12.495368 q -0.038993,-0.11698 0.015597,-0.202764 0.05459,-0.09358 0.1637713,-0.155973 0.4835152,-0.241758 0.9436345,-0.405529 0.460119,-0.17157 0.904641,-0.335341 0.452321,-0.17157 0.896843,-0.374335 0.444522,-0.210563 0.904642,-0.538105 1.02162,-0.5926963 1.567525,-1.1074061 0.545904,-0.5147097 0.725272,-0.9280373 0.179369,-0.4211261 0.04679,-0.7330714 -0.132576,-0.319744 -0.460119,-0.5147098 -0.327543,-0.1949658 -0.803259,-0.2573549 -0.467918,-0.070188 -0.974829,0.0078 -0.506911,0.077986 -0.990427,0.3119453 -0.483515,0.2261603 -0.834453,0.6316892 -0.0078,0.015597 -0.0234,0.05459 -0.0156,0.038993 -0.0312,0.085785 -0.0078,0.038993 -0.0234,0.085785 -0.0078,0.038993 -0.0078,0.046792 -0.233959,0.5615015 -0.444522,0.9670304 -0.202765,0.3977303 -0.3899319,0.7720646 -0.1793686,0.3665361 -0.3431399,0.7876621 -0.1637713,0.413327 -0.3119453,1.006023 -0.1403754,0.04679 -0.2027644,-0.0078 -0.05459,-0.05459 -0.062389,-0.163771 -0.0078,-0.11698 0.023396,-0.265154 0.038993,-0.148174 0.085785,-0.288549 0.046792,-0.140376 0.093584,-0.257355 0.046792,-0.11698 0.062389,-0.163772 Q 9.239284,10.37414 9.3718607,10.093389 9.5044375,9.8048397 9.6526115,9.4928944 9.8007855,9.1809491 9.9333623,8.8923997 10.065939,8.6038503 10.136127,8.4244817 q -0.07019,-0.2261603 -0.0312,-0.3977302 0.04679,-0.1793686 0.155973,-0.319744 0.109181,-0.148174 0.265153,-0.2651535 0.155973,-0.1247781 0.311946,-0.2417576 0.444522,-0.3275426 0.959231,-0.5069111 0.51471,-0.1793686 1.045017,-0.1949658 0.538106,-0.023396 1.068413,0.1325767 0.530307,0.1559727 0.998225,0.5069112 0.374334,0.3119453 0.436723,0.678481 0.07019,0.3665357 -0.101382,0.7564674 -0.17157,0.382133 -0.538106,0.7798632 -0.358737,0.3977303 -0.842252,0.779863 -0.483515,0.382133 -1.052815,0.74087 -0.561502,0.350939 -1.130802,0.655086 -0.561502,0.296348 -1.099607,0.530307 -0.530307,0.22616 -0.9514334,0.358737 -0.4133275,0.132576 -0.678481,0.163771 -0.2651535,0.0234 -0.3041467,-0.08579 z"
     id="text8"
     style="font-size:7.9858px;line-height:1;font-family:'Nothing You Could Do';-inkscape-font-specification:'Nothing You Could Do';letter-spacing:0.0549024px;word-spacing:0px;fill:#000000;stroke:#000000;stroke-width:0.409271"
     aria-label="D" />
  <path
     d="m 14.449325,14.569682 q -0.03885,-0.01554 -0.186496,-0.08548 -0.139872,-0.06994 -0.264202,-0.163184 -0.124331,-0.09325 -0.178725,-0.194266 -0.04662,-0.101019 0.101018,-0.170955 0.08548,0.07771 0.23312,0.186496 0.155413,0.108789 0.295285,0.163184 0.427386,0.02331 0.83146,0.0078 0.404074,-0.02331 0.784836,-0.101018 0.388532,-0.08548 0.745983,-0.248661 0.36522,-0.170955 0.707129,-0.442928 0.380762,-0.318596 0.497322,-0.582799 0.12433,-0.271972 0.04662,-0.497321 -0.06994,-0.23312 -0.303056,-0.427386 -0.225349,-0.202037 -0.543945,-0.372992 -0.310827,-0.178725 -0.668277,-0.326367 -0.35745,-0.155413 -0.683817,-0.295285 -0.326368,-0.147643 -0.59057,-0.287514 -0.264202,-0.139872 -0.388533,-0.287515 -0.03108,-0.132101 0.132101,-0.310826 0.163184,-0.1787248 0.450698,-0.3652205 0.287515,-0.1942664 0.660506,-0.3807621 0.372991,-0.1942664 0.761524,-0.3496794 0.396303,-0.1554131 0.761524,-0.2642023 0.372992,-0.1087892 0.652735,-0.1321011 0.279744,-0.031083 0.427386,0.038853 0.147643,0.069936 0.101019,0.2642022 -0.05439,0.00777 -0.279744,0.069936 -0.225349,0.062165 -0.551716,0.1554131 -0.318597,0.093248 -0.699359,0.2175783 -0.372992,0.1243305 -0.738212,0.2642022 -0.365221,0.1321012 -0.676047,0.2719729 -0.310826,0.1398715 -0.489552,0.2719725 -0.178725,0.132102 -0.202037,0.240891 -0.01554,0.108789 0.209808,0.186495 1.134516,0.341909 1.77948,0.730442 0.652735,0.380762 0.916937,0.777065 0.264202,0.388533 0.202037,0.769295 -0.06217,0.380762 -0.341909,0.70713 -0.271972,0.326367 -0.7149,0.582799 -0.442927,0.248661 -0.940249,0.388532 -0.489551,0.139872 -0.986873,0.147643 -0.489551,0.0078 -0.870313,-0.155413 z"
     id="text9"
     style="font-size:7.95715px;line-height:1;font-family:'Nothing You Could Do';-inkscape-font-specification:'Nothing You Could Do';letter-spacing:0.0547055px;word-spacing:0px;fill:#000000;stroke:#000000;stroke-width:0.407804"
     aria-label="S" />
</svg>
